<svg width="111" height="167" viewBox="0 0 111 167" fill="none" xmlns="http://www.w3.org/2000/svg">
<path d="M43.5 0H47.5V142.5C47 148.5 46.771 149 45.5 152C44.229 155 41 160 37.5 162.5C34 165 30.5 166.5 26 166.5H0V21C0.500347 17.5 0.802159 16.5784 2 14C3.19784 11.4216 5.09462 8.85015 7 7C8.90538 5.14985 9.71019 4.52694 12.5 3C15.2898 1.47306 16.5 1 21.7816 0H43.5Z" fill="#AB1313"/>
<path d="M62.5198 71.9926C62.5198 71.9926 84.2516 71.6855 86.8014 71.9926C89.3513 72.2998 92.0823 72.7778 93.3323 73.2778C94.5822 73.7778 96.5401 74.3756 99.3322 76.2778C102.124 78.18 102.973 79.1615 104.332 80.7778C105.692 82.3941 106.348 83.4092 107.332 85.2778C108.317 87.1464 108.941 89.5153 109.832 92.2778C110.724 95.0403 109.832 166.278 109.832 166.278C109.832 166.278 90.3322 166.778 84.8322 166.278C79.3322 165.778 77.1727 164.533 74.8322 163.278C72.4918 162.022 71.2376 161.128 69.3322 159.278C67.4268 157.428 65.2763 154.501 64.3322 152.278C63.3882 150.055 62.5198 147.571 62.5198 145.885C62.5198 144.2 62.4753 72.0242 62.5198 71.9926Z" fill="#AB1313"/>
</svg>
