<svg width="153" height="50" viewBox="0 0 153 50" fill="none" xmlns="http://www.w3.org/2000/svg">
<path d="M140.309 30.4415H143.936H145.708V33.9333H143.871V37.6268H144.103V41.1133H143.869V48.9011H140.309V30.4415Z" fill="#AB1313"/>
<path d="M148.143 30.9056C148.143 30.9056 147.689 30.7807 147.257 30.6848C146.826 30.5888 145.708 30.4415 145.708 30.4415V33.9338L146.372 33.997C146.372 33.997 146.818 34.0791 147.036 34.2178C147.255 34.3564 147.3 34.447 147.479 34.6594C147.658 34.8718 147.821 35.0095 147.922 35.3218C148.022 35.6342 147.992 35.961 147.922 36.2051C147.852 36.4492 147.839 36.4138 147.755 36.5877C147.671 36.7616 147.652 36.8846 147.479 37.0883C147.306 37.2921 147.085 37.4329 146.815 37.53C146.545 37.627 146.15 37.6256 146.15 37.6256H144.101V41.115L148.365 48.7914H152.129L147.7 40.6213C147.7 40.6213 148.417 40.401 148.807 40.1797C149.198 39.9584 149.393 39.7801 149.693 39.5173C149.993 39.2544 150.144 39.1182 150.357 38.8548C150.57 38.5914 150.627 38.5373 150.8 38.1924C150.973 37.8475 151.172 37.3091 151.243 37.0883C151.314 36.8675 151.32 35.7041 151.243 35.101C151.166 34.4979 151.15 34.4306 151.022 33.997C150.893 33.5633 150.767 33.2322 150.579 32.8929C150.391 32.5536 150.384 32.507 150.136 32.2305C149.888 31.9539 149.327 31.5363 149.029 31.3472C148.731 31.1582 148.143 30.9056 148.143 30.9056Z" fill="#AB1313"/>
<rect x="58.8159" y="30.4666" width="10.1852" height="3.533" fill="#AB1313"/>
<rect x="58.8159" y="30.4666" width="3.54267" height="18.5483" fill="#AB1313"/>
<rect x="58.8159" y="37.0908" width="10.1852" height="3.533" fill="#AB1313"/>
<rect x="58.8159" y="45.4819" width="10.1852" height="3.533" fill="#AB1313"/>
<rect x="123.797" y="41.5514" width="7.971" height="3.533" fill="#AB1313"/>
<path d="M122.423 48.7926L119.248 47.5775L125.905 30.466L129.023 31.646L122.423 48.7926Z" fill="#AB1313"/>
<path d="M122.423 48.7926L119.248 47.5775L125.905 30.466L129.023 31.646L122.423 48.7926Z" fill="#AB1313"/>
<path d="M122.423 48.7926L119.248 47.5775L125.905 30.466L129.023 31.646L122.423 48.7926Z" fill="#AB1313"/>
<path d="M122.423 48.7926L119.248 47.5775L125.905 30.466L129.023 31.646L122.423 48.7926Z" fill="#AB1313"/>
<path d="M122.423 48.7926L119.248 47.5775L125.905 30.466L129.023 31.646L122.423 48.7926Z" fill="#AB1313"/>
<path d="M122.423 48.7926L119.248 47.5775L125.905 30.466L129.023 31.646L122.423 48.7926Z" fill="#AB1313"/>
<path d="M122.423 48.7926L119.248 47.5775L125.905 30.466L129.023 31.646L122.423 48.7926Z" fill="#AB1313"/>
<path d="M122.423 48.7926L119.248 47.5775L125.905 30.466L129.023 31.646L122.423 48.7926Z" fill="#AB1313"/>
<path d="M126.305 31.632L129.448 30.4666L136.034 47.6183L132.918 48.8112L126.305 31.632Z" fill="#AB1313"/>
<path d="M125.905 30.4667H129.447L130.125 32.2332H125.217L125.905 30.4667Z" fill="#AB1313"/>
<path d="M132.324 47.2484H135.89L136.596 49.0149H132.988L132.324 47.2484Z" fill="#AB1313"/>
<path d="M123.001 47.2484H119.378L118.689 49.0149H122.362L123.001 47.2484Z" fill="#AB1313"/>
<path d="M92.6965 30.4664H96.2348L96.8988 32.2329H91.9987L92.6965 30.4664Z" fill="#AB1313"/>
<rect x="90.2565" y="41.5068" width="7.971" height="3.533" fill="#AB1313"/>
<path d="M89.1754 48.8955L85.9414 47.6575L92.6917 30.4663L95.8028 31.6776L89.1754 48.8955Z" fill="#AB1313"/>
<path d="M89.1754 48.8955L85.9414 47.6575L92.6917 30.4663L95.8028 31.6776L89.1754 48.8955Z" fill="#AB1313"/>
<path d="M89.1754 48.8955L85.9414 47.6575L92.6917 30.4663L95.8028 31.6776L89.1754 48.8955Z" fill="#AB1313"/>
<path d="M89.1754 48.8955L85.9414 47.6575L92.6917 30.4663L95.8028 31.6776L89.1754 48.8955Z" fill="#AB1313"/>
<path d="M89.1754 48.8955L85.9414 47.6575L92.6917 30.4663L95.8028 31.6776L89.1754 48.8955Z" fill="#AB1313"/>
<path d="M89.1754 48.8955L85.9414 47.6575L92.6917 30.4663L95.8028 31.6776L89.1754 48.8955Z" fill="#AB1313"/>
<path d="M89.1754 48.8955L85.9414 47.6575L92.6917 30.4663L95.8028 31.6776L89.1754 48.8955Z" fill="#AB1313"/>
<path d="M89.1754 48.8955L85.9414 47.6575L92.6917 30.4663L95.8028 31.6776L89.1754 48.8955Z" fill="#AB1313"/>
<path d="M93.011 31.6619L96.2341 30.4659L102.862 47.6013L99.6235 48.8411L93.011 31.6619Z" fill="#AB1313"/>
<path d="M89.8126 47.2479H86.1115L85.4407 49.0144H89.1252L89.8126 47.2479Z" fill="#AB1313"/>
<path d="M99.0087 47.2479H102.725L103.411 49.0144H99.6879L99.0087 47.2479Z" fill="#AB1313"/>
<path d="M45.3081 38.6358L47.7436 36.2068C47.7436 36.2068 50.5702 38.4143 51.2867 39.0786C52.0032 39.7429 53.058 40.8451 53.058 40.8451L50.1793 43.0531C50.1793 43.0531 50.2957 42.9274 49.7363 42.3896C49.177 41.8517 45.3081 38.6358 45.3081 38.6358Z" fill="#AB1313"/>
<path d="M53.9441 33.1039C53.9441 33.1039 51.9513 31.1313 51.0657 30.6883C50.18 30.2453 49.0324 29.9024 47.9658 30.0252C47.3429 30.0969 46.7407 30.2021 46.1945 30.4666C45.458 30.8234 44.866 31.3508 44.866 31.3508L47.0802 33.9996C47.0802 33.9996 47.523 33.3247 48.1873 33.3247C48.8515 33.3247 49.9586 33.7664 50.4014 34.208C50.8443 34.6496 51.2872 35.0912 51.2872 35.0912L53.9441 33.1039Z" fill="#AB1313"/>
<path d="M47.0799 33.9999L44.8657 31.3502C44.8657 31.3502 44.2403 31.9669 43.98 32.4542C43.7197 32.9416 43.4137 33.5914 43.3158 34.2207C43.1964 34.9876 43.5372 35.9872 43.5372 35.9872L47.3013 35.7664C47.3013 35.7664 46.8584 34.935 46.8584 34.6623C46.8584 34.3897 47.0799 33.9999 47.0799 33.9999Z" fill="#AB1313"/>
<path d="M47.3023 35.7663L43.5382 35.9871C43.5382 35.9871 43.7892 36.5355 43.981 36.8704C44.1729 37.2052 45.3095 38.6369 45.3095 38.6369L47.7451 36.2079L47.3023 35.7663Z" fill="#AB1313"/>
<path d="M42.4298 45.2614C42.4298 45.2614 44.0804 47.6551 44.4228 47.9112C44.7652 48.1672 44.6442 48.0768 45.3083 48.5735C46.2716 49.1453 47.7516 49.4735 48.3655 49.479C48.9925 49.4845 49.6031 49.4544 50.1779 49.2592C50.953 48.9959 51.6058 48.5456 51.6058 48.5456L49.7368 45.703C49.7368 45.703 48.8457 46.0052 48.1866 45.9234C47.5274 45.8415 46.5785 45.0913 46.1938 44.5985C45.8091 44.1057 45.5297 43.4941 45.5297 43.4941L42.4298 45.2614Z" fill="#AB1313"/>
<path d="M49.7375 45.7028L51.604 48.5462C52.2682 48.1045 52.6158 47.6902 53.0586 47.2485C53.5014 46.8069 53.7229 46.3653 53.9443 45.482C54.1657 44.5988 54.1191 43.7155 54.1191 43.7155L50.6231 43.7155C50.6231 43.7155 50.679 44.5527 50.6231 44.8196C50.5671 45.0865 49.7375 45.7028 49.7375 45.7028Z" fill="#AB1313"/>
<path d="M50.623 43.715L54.1121 43.715C54.1121 43.715 53.8572 42.5545 53.7228 42.1695C53.5885 41.7844 53.0586 40.8442 53.0586 40.8442L50.1804 42.9961L50.623 43.715Z" fill="#AB1313"/>
<rect x="78.2997" y="30.4666" width="3.54267" height="14.132" fill="#AB1313"/>
<path d="M81.8438 44.5986H78.3012C78.3012 44.5986 78.2295 45.1827 78.0796 45.4819C77.9297 45.781 77.1941 45.9235 77.1941 45.9235L80.5153 48.1316C80.5153 48.1316 81.3833 47.3186 81.6224 46.3651C81.8615 45.4116 81.8438 44.5986 81.8438 44.5986Z" fill="#AB1313"/>
<path d="M80.5153 48.1316L77.1941 45.9235C77.1941 45.9235 76.5298 46.1443 75.4227 45.2611C74.3157 44.3778 74.5371 44.3778 74.5371 44.3778L72.1015 46.5859C72.1015 46.5859 72.9872 47.9108 74.3157 48.5732C74.869 48.8492 76.6717 49.437 78.0797 49.2357C79.4877 49.0344 80.5153 48.1316 80.5153 48.1316Z" fill="#AB1313"/>
<rect x="111.512" y="30.4666" width="3.54267" height="14.132" fill="#AB1313"/>
<path d="M115.055 44.5986H111.512C111.512 44.5986 111.5 45.0645 111.29 45.4819C111.081 45.8992 110.405 45.9235 110.405 45.9235L113.947 48.1316C113.947 48.1316 114.556 47.4692 114.833 46.3651C115.11 45.2611 115.055 44.5986 115.055 44.5986Z" fill="#AB1313"/>
<path d="M113.947 48.1316L110.405 45.9235C110.405 45.9235 109.519 46.1443 108.633 45.2611C107.748 44.3778 107.748 44.3778 107.748 44.3778L105.312 46.5859C105.312 46.5859 107.084 48.3524 107.526 48.5732C107.969 48.7941 109.213 49.5326 111.29 49.2357C113.368 48.9388 113.947 48.1316 113.947 48.1316Z" fill="#AB1313"/>
<path d="M12.8802 0H14.0646V42.1933C13.9166 43.9699 13.8487 44.1179 13.4724 45.0062C13.0961 45.8945 12.14 47.3749 11.1036 48.1152C10.0673 48.8554 9.03095 49.2995 7.69852 49.2995H0V6.21796C0.148151 5.18163 0.237517 4.90876 0.592194 4.14531C0.946871 3.38186 1.5085 2.62047 2.07268 2.07265C2.63686 1.52484 2.87516 1.3404 3.70121 0.88828C4.52727 0.436165 4.8856 0.296093 6.44948 0H12.8802Z" fill="#AB1313"/>
<path d="M18.3635 21.3593C18.3635 21.3593 24.7982 21.2684 25.5532 21.3593C26.3082 21.4503 27.1169 21.5918 27.487 21.7399C27.8571 21.8879 28.4368 22.0649 29.2636 22.6281C30.0903 23.1914 30.3415 23.482 30.7441 23.9606C31.1466 24.4391 31.3408 24.7397 31.6323 25.293C31.9239 25.8462 32.1086 26.5477 32.3726 27.3656C32.6366 28.1836 32.3726 49.2765 32.3726 49.2765C32.3726 49.2765 26.5987 49.4246 24.9702 49.2765C23.3416 49.1285 22.7022 48.7599 22.0092 48.3883C21.3162 48.0166 20.9448 47.7517 20.3807 47.2039C19.8165 46.6561 19.1797 45.7895 18.9002 45.1312C18.6206 44.473 18.3635 43.7375 18.3635 43.2385C18.3635 42.7394 18.3504 21.3687 18.3635 21.3593Z" fill="#AB1313"/>
</svg>
